<?xml version="1.0" standalone="no"?>
<!DOCTYPE svg PUBLIC "-//W3C//DTD SVG 20010904//EN"
 "http://www.w3.org/TR/2001/REC-SVG-20010904/DTD/svg10.dtd">
<svg version="1.0" xmlns="http://www.w3.org/2000/svg"
 width="571.000000pt" height="570.000000pt" viewBox="0 0 571.000000 570.000000"
 preserveAspectRatio="xMidYMid meet">
<metadata>
Created by potrace 1.16, written by Peter Selinger 2001-2019
</metadata>
<g transform="translate(0.000000,570.000000) scale(0.100000,-0.100000)"
fill="#000000" stroke="none">
<path d="M2362 4219 c-158 -20 -303 -75 -409 -153 -197 -145 -309 -444 -290
-776 14 -246 77 -407 213 -550 117 -123 266 -196 459 -227 l105 -17 0 -107 c0
-78 -3 -108 -13 -112 -7 -3 -54 -11 -105 -18 l-92 -13 0 -33 0 -33 351 0 350
0 -3 32 -3 33 -115 17 c-63 9 -116 17 -117 17 -2 1 -3 50 -3 110 l0 110 58 6
c94 10 284 43 332 58 l45 13 5 81 5 81 215 -279 215 -278 208 -1 208 0 -3 32
c-3 32 -4 32 -83 48 -45 9 -86 19 -92 23 -6 4 -64 76 -130 159 -65 84 -223
287 -351 450 -128 163 -232 300 -232 305 0 18 564 558 589 564 14 4 59 12 99
19 l72 12 0 34 0 34 -265 0 -265 0 0 -34 c0 -34 1 -35 58 -46 31 -6 68 -13 82
-16 22 -5 -5 -34 -271 -297 -162 -161 -340 -337 -397 -392 l-102 -100 0 392 0
391 63 10 c34 6 81 14 105 17 40 6 42 8 42 41 l0 34 -335 0 -335 0 0 -34 c0
-37 -10 -34 168 -61 l42 -7 0 -579 c0 -318 -3 -579 -7 -579 -5 0 -37 7 -72 15
-182 43 -316 175 -386 380 -64 188 -60 563 9 763 90 262 271 371 596 359 151
-5 255 -28 348 -75 l57 -29 19 -111 19 -112 39 0 c25 0 41 5 44 15 3 8 2 92
-3 187 l-8 173 -85 17 c-186 38 -504 56 -648 37z m612 -1273 l57 -74 -14 -73
c-12 -69 -16 -76 -53 -101 -42 -29 -165 -73 -233 -84 l-41 -7 0 121 0 121 108
85 c59 47 110 86 113 86 4 0 32 -33 63 -74z"/>
<path d="M1630 2085 c0 -13 141 -15 1205 -15 1064 0 1205 2 1205 15 0 13 -141
15 -1205 15 -1064 0 -1205 -2 -1205 -15z"/>
<path d="M1876 1959 c-21 -16 -26 -29 -26 -63 0 -53 22 -76 73 -76 56 0 85 41
73 106 -11 55 -70 72 -120 33z"/>
<path d="M2468 1969 c-38 -22 -41 -118 -5 -141 25 -16 84 -8 103 13 28 31 25
96 -5 120 -25 21 -66 24 -93 8z"/>
<path d="M2650 1966 c0 -8 4 -17 8 -20 10 -6 8 -83 -3 -108 -6 -15 -1 -18 34
-18 42 0 50 7 30 27 -14 14 -3 33 18 33 12 0 14 -7 10 -30 -6 -29 -6 -30 33
-30 38 0 52 12 30 25 -5 3 -10 26 -10 50 0 24 5 47 10 50 6 3 10 13 10 21 0
10 -12 14 -40 14 l-41 0 7 -35 c5 -29 3 -35 -11 -35 -14 0 -16 6 -11 35 l7 35
-41 0 c-28 0 -40 -4 -40 -14z"/>
<path d="M2975 1900 l0 -80 38 0 c35 0 46 8 30 24 -8 7 -13 36 -7 36 2 0 10
-13 19 -30 12 -23 22 -30 45 -30 35 0 36 4 10 37 -11 14 -20 33 -20 43 0 9 9
25 20 35 31 28 25 45 -16 45 -30 0 -36 -3 -32 -18 3 -10 -1 -27 -10 -38 -13
-17 -14 -16 -8 19 l7 37 -38 0 -38 0 0 -80z"/>
<path d="M3223 1970 c-24 -10 -36 -40 -35 -83 1 -42 28 -67 72 -67 49 0 75 28
75 82 0 63 -50 93 -112 68z"/>
<path d="M3920 1967 c0 -8 3 -17 7 -21 8 -7 5 -79 -3 -108 -4 -15 1 -18 30
-18 19 0 38 5 41 10 3 6 1 10 -4 10 -6 0 -11 10 -11 23 0 20 2 19 21 -10 14
-21 29 -33 44 -33 20 0 23 6 28 58 4 31 10 67 13 80 6 20 3 22 -29 22 -36 0
-56 -13 -37 -25 5 -3 10 -16 10 -28 -1 -18 -5 -16 -23 15 -18 31 -28 38 -54
38 -21 0 -33 -5 -33 -13z"/>
<path d="M2561 1553 c-12 -38 -25 -74 -28 -80 -3 -9 7 -13 32 -13 32 0 36 2
30 20 -5 16 -2 20 16 20 18 0 20 -3 11 -12 -21 -21 -13 -28 33 -28 41 0 58 11
36 24 -5 3 -12 18 -15 33 -25 104 -25 103 -59 103 -32 0 -34 -3 -56 -67z"/>
<path d="M2754 1608 c-4 -6 -2 -14 4 -16 15 -5 16 -98 2 -107 -25 -16 -5 -26
48 -25 31 0 65 0 76 0 28 -2 30 7 7 36 -19 24 -20 29 -6 44 21 23 19 46 -7 64
-26 19 -114 21 -124 4z"/>
<path d="M2967 1613 c-3 -5 -5 -20 -5 -35 1 -32 22 -37 37 -10 8 13 10 5 11
-35 0 -29 -4 -53 -10 -53 -5 0 -10 -4 -10 -10 0 -5 23 -10 50 -10 48 0 66 12
35 24 -11 4 -15 20 -15 53 1 38 3 44 11 31 18 -31 39 -22 39 17 l0 35 -69 0
c-39 0 -72 -3 -74 -7z"/>
<path d="M3193 1605 c-33 -23 -30 -61 7 -80 17 -9 30 -20 30 -25 0 -13 -6 -13
-30 2 -22 14 -27 11 -32 -17 -2 -17 3 -20 39 -23 87 -6 115 50 46 90 -20 13
-31 24 -23 26 7 3 16 -1 20 -8 13 -21 42 -3 38 22 -2 18 -10 24 -38 26 -20 1
-45 -4 -57 -13z"/>
</g>
</svg>
